<svg width="19" height="21" viewBox="0 0 19 21" fill="none" xmlns="http://www.w3.org/2000/svg">
<path d="M0.125 2.78125C0.125 1.453 1.203 0.375 2.53125 0.375H11.4688C12.797 0.375 13.875 1.453 13.875 2.78125V7.53462C12.3235 7.09415 10.6718 7.16123 9.16113 7.72607C7.65046 8.2909 6.35992 9.3239 5.47799 10.6742C4.59605 12.0245 4.1689 13.6214 4.25893 15.2317C4.34895 16.842 4.95143 18.3814 5.97837 19.625H2.53125C1.89307 19.625 1.28103 19.3715 0.829774 18.9202C0.378515 18.469 0.125 17.8569 0.125 17.2188V2.78125ZM4.25 11.375C4.61467 11.375 4.96441 11.2301 5.22227 10.9723C5.48013 10.7144 5.625 10.3647 5.625 10C5.625 9.63533 5.48013 9.28559 5.22227 9.02773C4.96441 8.76987 4.61467 8.625 4.25 8.625C3.88533 8.625 3.53559 8.76987 3.27773 9.02773C3.01987 9.28559 2.875 9.63533 2.875 10C2.875 10.3647 3.01987 10.7144 3.27773 10.9723C3.53559 11.2301 3.88533 11.375 4.25 11.375Z" fill="#6E768C"/>
<path d="M12.4766 21C14.1176 21 15.6914 20.3481 16.8518 19.1877C18.0122 18.0273 18.6641 16.4535 18.6641 14.8125C18.6641 13.1715 18.0122 11.5977 16.8518 10.4373C15.6914 9.2769 14.1176 8.625 12.4766 8.625C10.8355 8.625 9.26172 9.2769 8.10134 10.4373C6.94096 11.5977 6.28906 13.1715 6.28906 14.8125C6.28906 16.4535 6.94096 18.0273 8.10134 19.1877C9.26172 20.3481 10.8355 21 12.4766 21ZM12.9633 18.0492C12.8342 18.1783 12.6591 18.2509 12.4766 18.2509C12.294 18.2509 12.1189 18.1783 11.9898 18.0492C11.8607 17.9202 11.7882 17.7451 11.7882 17.5625C11.7882 17.3799 11.8607 17.2048 11.9898 17.0758L13.5669 15.5H9.72656C9.54423 15.5 9.36936 15.4276 9.24043 15.2986C9.11149 15.1697 9.03906 14.9948 9.03906 14.8125C9.03906 14.6302 9.11149 14.4553 9.24043 14.3264C9.36936 14.1974 9.54423 14.125 9.72656 14.125H13.5669L11.9898 12.5492C11.8607 12.4202 11.7882 12.2451 11.7882 12.0625C11.7882 11.8799 11.8607 11.7048 11.9898 11.5758C12.1189 11.4467 12.294 11.3741 12.4766 11.3741C12.6591 11.3741 12.8342 11.4467 12.9633 11.5758L15.7133 14.3258C15.8412 14.4539 15.9133 14.6273 15.9141 14.8084V14.8166C15.913 14.9958 15.8419 15.1675 15.7161 15.2951L15.7119 15.2992L12.9619 18.0492H12.9633Z" fill="#DC6470"/>
</svg>
