<svg width="33" height="32" viewBox="0 0 33 32" fill="none" xmlns="http://www.w3.org/2000/svg">
<mask id="mask0_62_2823" style="mask-type:alpha" maskUnits="userSpaceOnUse" x="8" y="6" width="17" height="21">
<path d="M16.5 22C17.0304 22 17.5391 21.7893 17.9142 21.4142C18.2893 21.0391 18.5 20.5304 18.5 20C18.5 18.89 17.6 18 16.5 18C15.9696 18 15.4609 18.2107 15.0858 18.5858C14.7107 18.9609 14.5 19.4696 14.5 20C14.5 20.5304 14.7107 21.0391 15.0858 21.4142C15.4609 21.7893 15.9696 22 16.5 22ZM22.5 13C23.0304 13 23.5391 13.2107 23.9142 13.5858C24.2893 13.9609 24.5 14.4696 24.5 15V25C24.5 25.5304 24.2893 26.0391 23.9142 26.4142C23.5391 26.7893 23.0304 27 22.5 27H10.5C9.96957 27 9.46086 26.7893 9.08579 26.4142C8.71071 26.0391 8.5 25.5304 8.5 25V15C8.5 13.89 9.4 13 10.5 13H11.5V11C11.5 9.67392 12.0268 8.40215 12.9645 7.46447C13.9021 6.52678 15.1739 6 16.5 6C17.1566 6 17.8068 6.12933 18.4134 6.3806C19.02 6.63188 19.5712 7.00017 20.0355 7.46447C20.4998 7.92876 20.8681 8.47995 21.1194 9.08658C21.3707 9.69321 21.5 10.3434 21.5 11V13H22.5ZM16.5 8C15.7044 8 14.9413 8.31607 14.3787 8.87868C13.8161 9.44129 13.5 10.2044 13.5 11V13H19.5V11C19.5 10.2044 19.1839 9.44129 18.6213 8.87868C18.0587 8.31607 17.2956 8 16.5 8Z" fill="#5F5F5F"/>
</mask>
<g mask="url(#mask0_62_2823)">
<rect x="0.5" width="32" height="32" fill="white"/>
</g>
</svg>
